<svg xmlns="http://www.w3.org/2000/svg" xmlns:xlink="http://www.w3.org/1999/xlink" width="500" zoomAndPan="magnify" viewBox="0 0 375 374.999991" height="500" preserveAspectRatio="xMidYMid meet" version="1.0"><defs><g/></defs><g fill="#e01240" fill-opacity="1"><g transform="translate(96.919288, 294.803624)"><g><path d="M 62.15625 -71.40625 C 64.769531 -52.925781 74.242188 -43.6875 90.578125 -43.6875 C 98.390625 -43.6875 104.898438 -46.347656 110.109375 -51.671875 C 115.328125 -57.003906 117.9375 -63.695312 117.9375 -71.75 C 117.9375 -77.90625 116.394531 -82.992188 113.3125 -87.015625 C 110.238281 -91.046875 105.265625 -94.601562 98.390625 -97.6875 L 121.484375 -143.15625 C 153.210938 -128.707031 169.078125 -105.257812 169.078125 -72.8125 C 169.078125 -61.6875 167.0625 -51.328125 163.03125 -41.734375 C 159.007812 -32.148438 153.445312 -23.800781 146.34375 -16.6875 C 139.238281 -9.582031 130.890625 -3.960938 121.296875 0.171875 C 111.710938 4.316406 101.351562 6.390625 90.21875 6.390625 C 76.488281 6.390625 63.644531 3.078125 51.6875 -3.546875 C 39.726562 -10.179688 30.195312 -19.421875 23.09375 -31.265625 C 19.539062 -37.179688 16.875 -43.21875 15.09375 -49.375 C 13.320312 -55.53125 12.195312 -62.875 11.71875 -71.40625 Z M 70.328125 -106.921875 C 62.046875 -109.285156 55.414062 -111.769531 50.4375 -114.375 C 45.46875 -116.976562 40.734375 -120.414062 36.234375 -124.6875 C 30.078125 -130.84375 25.28125 -138.125 21.84375 -146.53125 C 18.40625 -154.9375 16.6875 -163.992188 16.6875 -173.703125 C 16.6875 -183.648438 18.460938 -192.828125 22.015625 -201.234375 C 25.578125 -209.640625 30.550781 -216.976562 36.9375 -223.25 C 43.332031 -229.53125 50.789062 -234.445312 59.3125 -238 C 67.84375 -241.550781 77.082031 -243.328125 87.03125 -243.328125 C 97.207031 -243.328125 106.5 -241.664062 114.90625 -238.34375 C 123.320312 -235.03125 130.664062 -230.296875 136.9375 -224.140625 C 143.207031 -217.984375 148.175781 -210.582031 151.84375 -201.9375 C 155.519531 -193.289062 157.597656 -183.640625 158.078125 -172.984375 L 105.140625 -172.984375 C 103.484375 -186.484375 97.328125 -193.234375 86.671875 -193.234375 C 81.222656 -193.234375 76.722656 -191.335938 73.171875 -187.546875 C 69.617188 -183.765625 67.84375 -179.148438 67.84375 -173.703125 C 67.84375 -166.117188 71.515625 -160.550781 78.859375 -157 C 80.273438 -156.53125 81.691406 -156.054688 83.109375 -155.578125 C 84.535156 -155.109375 87.972656 -154.28125 93.421875 -153.09375 Z M 70.328125 -106.921875 "/></g></g></g></svg>